<svg width="16" height="16" viewBox="0 0 16 16" fill="none" xmlns="http://www.w3.org/2000/svg">
<path d="M7.91664 15.8333C6.82262 15.8333 5.79405 15.6252 4.83091 15.2091C3.86777 14.7929 3.0299 14.2286 2.3173 13.516C1.60469 12.8034 1.04033 11.9655 0.624196 11.0024C0.208065 10.0392 0 9.01065 0 7.91664C0 6.82262 0.208065 5.79405 0.624196 4.83091C1.04033 3.86777 1.60469 3.0299 2.3173 2.3173C3.0299 1.60469 3.86777 1.04033 4.83091 0.624196C5.79405 0.208065 6.82262 0 7.91664 0C9.01065 0 10.0392 0.208065 11.0024 0.624196C11.9655 1.04033 12.8034 1.60469 13.516 2.3173C14.2286 3.0299 14.7929 3.86777 15.2091 4.83091C15.6252 5.79405 15.8333 6.82262 15.8333 7.91664V8.93265C15.8333 9.69333 15.5721 10.3392 15.0496 10.8701C14.5272 11.4011 13.8856 11.6666 13.125 11.6666C12.6335 11.6666 12.1778 11.5464 11.758 11.306C11.3381 11.0656 11.0064 10.735 10.7628 10.314C10.4027 10.7435 9.97726 11.0763 9.48635 11.3124C8.99543 11.5485 8.47219 11.6666 7.91664 11.6666C6.87605 11.6666 5.9909 11.3018 5.26121 10.5721C4.53151 9.84237 4.16667 8.95723 4.16667 7.91664C4.16667 6.87605 4.53151 5.9909 5.26121 5.26121C5.9909 4.53151 6.87605 4.16667 7.91664 4.16667C8.95723 4.16667 9.84237 4.53151 10.5721 5.26121C11.3018 5.9909 11.6666 6.87605 11.6666 7.91664V8.93265C11.6666 9.34184 11.8074 9.69147 12.0889 9.98154C12.3704 10.2716 12.7158 10.4166 13.125 10.4166C13.5341 10.4166 13.8795 10.2716 14.161 9.98154C14.4425 9.69147 14.5833 9.34184 14.5833 8.93265V7.91664C14.5833 6.05552 13.9375 4.47914 12.6458 3.18747C11.3541 1.8958 9.77775 1.24997 7.91664 1.24997C6.05552 1.24997 4.47914 1.8958 3.18747 3.18747C1.8958 4.47914 1.24997 6.05552 1.24997 7.91664C1.24997 9.77775 1.8958 11.3541 3.18747 12.6458C4.47914 13.9375 6.05552 14.5833 7.91664 14.5833H12.0833V15.8333H7.91664ZM7.91664 10.4166C8.61108 10.4166 9.20136 10.1736 9.68747 9.68747C10.1736 9.20136 10.4166 8.61108 10.4166 7.91664C10.4166 7.22219 10.1736 6.63191 9.68747 6.1458C9.20136 5.65969 8.61108 5.41664 7.91664 5.41664C7.22219 5.41664 6.63191 5.65969 6.1458 6.1458C5.65969 6.63191 5.41664 7.22219 5.41664 7.91664C5.41664 8.61108 5.65969 9.20136 6.1458 9.68747C6.63191 10.1736 7.22219 10.4166 7.91664 10.4166Z" fill="#52525B"/>
</svg>
