<svg width="48" height="48" viewBox="0 0 48 48" fill="none" xmlns="http://www.w3.org/2000/svg">
<rect width="48" height="48" rx="8" fill="#FFB4AA" fill-opacity="0.1"/>
<path d="M16.5 27.75H18.375V25.25H20.875V27.75H22.75V20.25H20.875V23.375H18.375V20.25H16.5V27.75ZM25.25 27.75H30.25C30.6042 27.75 30.901 27.6302 31.1406 27.3906C31.3802 27.151 31.5 26.8542 31.5 26.5V21.5C31.5 21.1458 31.3802 20.849 31.1406 20.6094C30.901 20.3698 30.6042 20.25 30.25 20.25H25.25V27.75ZM27.125 25.875V22.125H29.625V25.875H27.125ZM14 34C13.3125 34 12.724 33.7552 12.2344 33.2656C11.7448 32.776 11.5 32.1875 11.5 31.5V16.5C11.5 15.8125 11.7448 15.224 12.2344 14.7344C12.724 14.2448 13.3125 14 14 14H34C34.6875 14 35.276 14.2448 35.7656 14.7344C36.2552 15.224 36.5 15.8125 36.5 16.5V31.5C36.5 32.1875 36.2552 32.776 35.7656 33.2656C35.276 33.7552 34.6875 34 34 34H14ZM14 31.5H34V16.5H14V31.5ZM14 31.5V16.5V31.5Z" fill="#E5E2E3"/>
</svg>
