<svg width="13" height="17" viewBox="0 0 13 17" fill="none" xmlns="http://www.w3.org/2000/svg">
<path d="M1.5064 16.2499C1.0908 16.2499 0.735838 16.1027 0.441503 15.8084C0.147168 15.5141 0 15.1591 0 14.7435V6.92303C0 6.50744 0.147168 6.15247 0.441503 5.85814C0.735838 5.5638 1.0908 5.41664 1.5064 5.41664H2.5V3.74997C2.5 2.70938 2.86485 1.82424 3.59454 1.09454C4.32424 0.364847 5.20938 0 6.24997 0C7.29056 0 8.1757 0.364847 8.9054 1.09454C9.63509 1.82424 9.99994 2.70938 9.99994 3.74997V5.41664H10.9935C11.4091 5.41664 11.7641 5.5638 12.0584 5.85814C12.3528 6.15247 12.4999 6.50744 12.4999 6.92303V14.7435C12.4999 15.1591 12.3528 15.5141 12.0584 15.8084C11.7641 16.1027 11.4091 16.2499 10.9935 16.2499H1.5064ZM1.5064 14.9999H10.9935C11.0683 14.9999 11.1298 14.9759 11.1778 14.9278C11.2259 14.8797 11.25 14.8183 11.25 14.7435V6.92303C11.25 6.84824 11.2259 6.78681 11.1778 6.73873C11.1298 6.69065 11.0683 6.66661 10.9935 6.66661H1.5064C1.43161 6.66661 1.37017 6.69065 1.32209 6.73873C1.27401 6.78681 1.24997 6.84824 1.24997 6.92303V14.7435C1.24997 14.8183 1.27401 14.8797 1.32209 14.9278C1.37017 14.9759 1.43161 14.9999 1.5064 14.9999ZM6.24997 12.2916C6.65488 12.2916 6.99916 12.1498 7.28281 11.8661C7.56646 11.5825 7.70829 11.2382 7.70829 10.8333C7.70829 10.4284 7.56646 10.0841 7.28281 9.80043C6.99916 9.51678 6.65488 9.37495 6.24997 9.37495C5.84506 9.37495 5.50078 9.51678 5.21713 9.80043C4.93348 10.0841 4.79165 10.4284 4.79165 10.8333C4.79165 11.2382 4.93348 11.5825 5.21713 11.8661C5.50078 12.1498 5.84506 12.2916 6.24997 12.2916ZM3.74997 5.41664H8.74997V3.74997C8.74997 3.05553 8.50691 2.46525 8.0208 1.97914C7.53469 1.49303 6.94441 1.24997 6.24997 1.24997C5.55552 1.24997 4.96525 1.49303 4.47914 1.97914C3.99302 2.46525 3.74997 3.05553 3.74997 3.74997V5.41664ZM1.24997 14.9999C1.24997 14.9999 1.24997 14.9759 1.24997 14.9278C1.24997 14.8797 1.24997 14.8183 1.24997 14.7435V6.92303C1.24997 6.84824 1.24997 6.78681 1.24997 6.73873C1.24997 6.69065 1.24997 6.66661 1.24997 6.66661C1.24997 6.66661 1.24997 6.69065 1.24997 6.73873C1.24997 6.78681 1.24997 6.84824 1.24997 6.92303V14.7435C1.24997 14.8183 1.24997 14.8797 1.24997 14.9278C1.24997 14.9759 1.24997 14.9999 1.24997 14.9999Z" fill="#52525B"/>
</svg>
