<svg width="40" height="40" viewBox="0 0 40 40" fill="none" xmlns="http://www.w3.org/2000/svg">
<rect width="40" height="40" rx="8" fill="#E5E2E3" fill-opacity="0.05"/>
<path d="M21 29V27H23V29H21ZM19 27V22H21V27H19ZM27 24V20H29V24H27ZM25 20V18H27V20H25ZM13 22V20H15V22H13ZM11 20V18H13V20H11ZM20 13V11H22V13H20ZM12.5 15.5H15.5V12.5H12.5V15.5ZM11 17V11H17V17H11ZM12.5 27.5H15.5V24.5H12.5V27.5ZM11 29V23H17V29H11ZM24.5 15.5H27.5V12.5H24.5V15.5ZM23 17V11H29V17H23ZM25 29V26H23V24H27V27H29V29H25ZM21 22V20H25V22H21ZM17 22V20H15V18H21V20H19V22H17ZM18 17V13H20V15H22V17H18ZM13.25 14.75V13.25H14.75V14.75H13.25ZM13.25 26.75V25.25H14.75V26.75H13.25ZM25.25 14.75V13.25H26.75V14.75H25.25Z" fill="#E5E2E3" fill-opacity="0.6"/>
</svg>
